<?xml version="1.0" encoding="UTF-8" standalone="no"?>
<!-- Generator: Adobe Illustrator 19.0.0, SVG Export Plug-In . SVG Version: 6.00 Build 0)  -->

<svg
   xmlns:dc="http://purl.org/dc/elements/1.1/"
   xmlns:cc="http://creativecommons.org/ns#"
   xmlns:rdf="http://www.w3.org/1999/02/22-rdf-syntax-ns#"
   xmlns:svg="http://www.w3.org/2000/svg"
   xmlns="http://www.w3.org/2000/svg"
   xmlns:sodipodi="http://sodipodi.sourceforge.net/DTD/sodipodi-0.dtd"
   xmlns:inkscape="http://www.inkscape.org/namespaces/inkscape"
   version="1.1"
   id="Layer_1"
   x="0px"
   y="0px"
   viewBox="0 0 26.666687 26.666687"
   xml:space="preserve"
   width="32"
   height="32"
   sodipodi:docname="done.svg"
   inkscape:version="0.92.2 (5c3e80d, 2017-08-06)"><metadata
     id="metadata106"><rdf:RDF><cc:Work
         rdf:about=""><dc:format>image/svg+xml</dc:format><dc:type
           rdf:resource="http://purl.org/dc/dcmitype/StillImage" /><dc:title></dc:title></cc:Work></rdf:RDF></metadata><defs
     id="defs104" /><sodipodi:namedview
     pagecolor="#ffffff"
     bordercolor="#666666"
     borderopacity="1"
     objecttolerance="10"
     gridtolerance="10"
     guidetolerance="10"
     inkscape:pageopacity="0"
     inkscape:pageshadow="2"
     inkscape:window-width="1920"
     inkscape:window-height="1001"
     id="namedview102"
     showgrid="false"
     fit-margin-top="0"
     fit-margin-left="0"
     fit-margin-right="0"
     fit-margin-bottom="0"
     inkscape:zoom="1.578125"
     inkscape:cx="256"
     inkscape:cy="254.13641"
     inkscape:window-x="-9"
     inkscape:window-y="-9"
     inkscape:window-maximized="1"
     inkscape:current-layer="Layer_1" /><g
     id="g63"
     transform="matrix(0.06250015,0,0,0.06250015,0,0.62707)"><g
       id="g61"><polygon
         points="192.213,298.667 326.187,168.747 293.333,135.04 190.08,240.213 137.173,187.093 108.8,215.467 "
         id="polygon59"
         style="fill:#a7a7a7" /></g></g><g
     id="g69"
     transform="scale(0.06250015)"><g
       id="g67"><path
         d="M 213.333,0 C 95.513,0 0,95.513 0,213.333 c 0,117.82 95.513,213.333 213.333,213.333 117.82,0 213.333,-95.513 213.333,-213.333 C 426.666,95.513 331.154,0 213.333,0 Z m 0,388.053 c -96.495,0 -174.72,-78.225 -174.72,-174.72 0,-96.495 78.225,-174.72 174.72,-174.72 96.446,0.117 174.602,78.273 174.72,174.72 0,96.496 -78.224,174.72 -174.72,174.72 z"
         id="path65"
         inkscape:connector-curvature="0"
         style="fill:#a7a7a7" /></g></g><g
     id="g71"
     transform="translate(0,-389.9663)" /><g
     id="g73"
     transform="translate(0,-389.9663)" /><g
     id="g75"
     transform="translate(0,-389.9663)" /><g
     id="g77"
     transform="translate(0,-389.9663)" /><g
     id="g79"
     transform="translate(0,-389.9663)" /><g
     id="g81"
     transform="translate(0,-389.9663)" /><g
     id="g83"
     transform="translate(0,-389.9663)" /><g
     id="g85"
     transform="translate(0,-389.9663)" /><g
     id="g87"
     transform="translate(0,-389.9663)" /><g
     id="g89"
     transform="translate(0,-389.9663)" /><g
     id="g91"
     transform="translate(0,-389.9663)" /><g
     id="g93"
     transform="translate(0,-389.9663)" /><g
     id="g95"
     transform="translate(0,-389.9663)" /><g
     id="g97"
     transform="translate(0,-389.9663)" /><g
     id="g99"
     transform="translate(0,-389.9663)" /></svg>
