<svg xmlns="http://www.w3.org/2000/svg" width="387.344" height="414.81" viewBox="0 0 387.344 414.81">
  <metadata><?xpacket begin="﻿" id="W5M0MpCehiHzreSzNTczkc9d"?>
<x:xmpmeta xmlns:x="adobe:ns:meta/" x:xmptk="Adobe XMP Core 5.6-c142 79.160924, 2017/07/13-01:06:39        ">
   <rdf:RDF xmlns:rdf="http://www.w3.org/1999/02/22-rdf-syntax-ns#">
      <rdf:Description rdf:about=""/>
   </rdf:RDF>
</x:xmpmeta>
                                                                                                    
                                                                                                    
                                                                                                    
                                                                                                    
                                                                                                    
                                                                                                    
                                                                                                    
                                                                                                    
                                                                                                    
                                                                                                    
                                                                                                    
                                                                                                    
                                                                                                    
                                                                                                    
                                                                                                    
                                                                                                    
                                                                                                    
                                                                                                    
                                                                                                    
                                                                                                    
                           
<?xpacket end="w"?></metadata>
<defs>
    <style>
      .cls-1 {
        fill: #fff;
        fill-rule: evenodd;
      }
    </style>
  </defs>
  <path id="gear_2" data-name="gear 2" class="cls-1" d="M598.3,1529.51H567a157.074,157.074,0,0,1-12.456,32.43l21.951,23.51a29.208,29.208,0,0,1,0,39.31l-18.354,19.66a24.755,24.755,0,0,1-36.711,0l-21.952-23.51a135.811,135.811,0,0,1-30.282,13.34v33.53c0,15.27-11.56,27.65-25.823,27.65H417.547c-14.262,0-25.823-12.38-25.823-27.65v-33.53a135.948,135.948,0,0,1-31.287-13.99l-22.563,24.16a24.754,24.754,0,0,1-36.71,0l-18.356-19.66a29.208,29.208,0,0,1,0-39.31l22.958-24.58a157.47,157.47,0,0,1-11.846-31.36H262.613c-14.263,0-25.823-12.38-25.823-27.65v-27.65c0-15.28,11.56-27.66,25.823-27.66H293.92a157.515,157.515,0,0,1,12.457-32.43l-23.569-25.24a29.208,29.208,0,0,1,0-39.31l18.356-19.66a24.77,24.77,0,0,1,36.71,0l23.568,25.24a136.27,136.27,0,0,1,30.282-13.34v-33.52c0-15.28,11.561-27.66,25.823-27.66h25.822c14.263,0,25.823,12.38,25.823,27.66v33.52a136.4,136.4,0,0,1,29.276,12.69l22.958-24.59a24.771,24.771,0,0,1,36.711,0l18.354,19.66a29.208,29.208,0,0,1,0,39.31l-22.563,24.17A156.988,156.988,0,0,1,567,1446.55H598.3c14.263,0,25.823,12.38,25.823,27.66v27.65C624.127,1517.13,612.567,1529.51,598.3,1529.51ZM430.458,1405.07c42.785,0,77.467,37.15,77.467,82.96s-34.682,82.96-77.467,82.96-77.468-37.14-77.468-82.96S387.673,1405.07,430.458,1405.07Zm0,41.48c21.393,0,38.734,18.57,38.734,41.48s-17.341,41.48-38.734,41.48-38.734-18.57-38.734-41.48S409.066,1446.55,430.458,1446.55Z" transform="translate(-236.781 -1280.63)"/>
</svg>
