<svg xmlns="http://www.w3.org/2000/svg" width="24.969" height="20" viewBox="0 0 24.969 20">
  <metadata><?xpacket begin="﻿" id="W5M0MpCehiHzreSzNTczkc9d"?>
<x:xmpmeta xmlns:x="adobe:ns:meta/" x:xmptk="Adobe XMP Core 5.6-c142 79.160924, 2017/07/13-01:06:39        ">
   <rdf:RDF xmlns:rdf="http://www.w3.org/1999/02/22-rdf-syntax-ns#">
      <rdf:Description rdf:about=""/>
   </rdf:RDF>
</x:xmpmeta>
                                                                                                    
                                                                                                    
                                                                                                    
                                                                                                    
                                                                                                    
                                                                                                    
                                                                                                    
                                                                                                    
                                                                                                    
                                                                                                    
                                                                                                    
                                                                                                    
                                                                                                    
                                                                                                    
                                                                                                    
                                                                                                    
                                                                                                    
                                                                                                    
                                                                                                    
                                                                                                    
                           
<?xpacket end="w"?></metadata>
<defs>
    <style>
      .cls-1 {
        fill: #ececec;
        fill-rule: evenodd;
      }
    </style>
  </defs>
  <path id="News_Icon" data-name="News Icon" class="cls-1" d="M547.74,4508.23h19.974a2.5,2.5,0,0,1,2.5,2.5v14.98a2.5,2.5,0,0,1-2.5,2.5H547.74a2.5,2.5,0,0,1-2.5-2.5v-14.98A2.5,2.5,0,0,1,547.74,4508.23Zm12.484,9.16h7.49a0.83,0.83,0,1,1,0,1.66h-7.49A0.83,0.83,0,1,1,560.224,4517.39Zm0-3.33h7.49a0.83,0.83,0,1,1,0,1.66h-7.49A0.83,0.83,0,1,1,560.224,4514.06Zm0,6.66h7.49a0.83,0.83,0,1,1,0,1.66h-7.49A0.83,0.83,0,1,1,560.224,4520.72Zm-12.484-7.5h8.323a0.839,0.839,0,0,1,.832.84v8.32a0.83,0.83,0,0,1-.832.83H547.74a0.83,0.83,0,0,1-.832-0.83v-8.32A0.838,0.838,0,0,1,547.74,4513.22Z" transform="translate(-545.25 -4508.22)"/>
</svg>
